<svg width="512" height="512" viewBox="0 0 512 512" fill="none" xmlns="http://www.w3.org/2000/svg">
<rect width="512" height="512" fill="#0D13C5"/>
<path d="M113.506 235.646C113.137 231.922 111.552 229.029 108.751 226.967C105.951 224.905 102.15 223.874 97.3487 223.874C94.0864 223.874 91.3319 224.335 89.0852 225.259C86.8385 226.151 85.1151 227.397 83.9148 228.998C82.7453 230.598 82.1605 232.414 82.1605 234.445C82.099 236.138 82.4529 237.615 83.2223 238.877C84.0225 240.139 85.1151 241.232 86.5 242.155C87.8849 243.047 89.4853 243.832 91.3011 244.509C93.117 245.156 95.0559 245.71 97.1179 246.171L105.612 248.202C109.736 249.126 113.522 250.357 116.969 251.896C120.416 253.434 123.401 255.327 125.925 257.574C128.448 259.821 130.403 262.467 131.788 265.514C133.203 268.561 133.927 272.054 133.957 275.994C133.927 281.78 132.449 286.796 129.526 291.043C126.633 295.26 122.447 298.537 116.969 300.876C111.521 303.185 104.951 304.339 97.2564 304.339C89.6238 304.339 82.9761 303.169 77.3132 300.83C71.6811 298.491 67.2801 295.029 64.1101 290.443C60.9709 285.827 59.3243 280.118 59.1705 273.316H78.5135C78.7289 276.486 79.6368 279.133 81.2372 281.256C82.8684 283.349 85.0381 284.934 87.7464 286.011C90.4856 287.058 93.5786 287.581 97.0256 287.581C100.411 287.581 103.35 287.089 105.843 286.104C108.367 285.119 110.321 283.749 111.706 281.995C113.091 280.241 113.783 278.225 113.783 275.947C113.783 273.824 113.152 272.039 111.891 270.592C110.66 269.146 108.844 267.915 106.443 266.899C104.073 265.884 101.165 264.96 97.718 264.129L87.4233 261.544C79.4522 259.605 73.1584 256.574 68.5419 252.45C63.9254 248.326 61.6326 242.77 61.6634 235.784C61.6326 230.06 63.156 225.058 66.2337 220.781C69.3421 216.503 73.6046 213.163 79.0213 210.763C84.438 208.362 90.5933 207.162 97.4872 207.162C104.504 207.162 110.629 208.362 115.861 210.763C121.124 213.163 125.217 216.503 128.141 220.781C131.064 225.058 132.572 230.013 132.665 235.646H113.506ZM179.072 304.385C171.809 304.385 165.561 302.846 160.329 299.768C155.128 296.66 151.127 292.351 148.326 286.842C145.556 281.333 144.171 274.993 144.171 267.822C144.171 260.559 145.572 254.188 148.372 248.71C151.204 243.201 155.22 238.908 160.421 235.83C165.623 232.722 171.809 231.168 178.98 231.168C185.166 231.168 190.582 232.291 195.23 234.538C199.877 236.784 203.555 239.939 206.263 244.001C208.971 248.064 210.464 252.834 210.741 258.312H192.183C191.66 254.773 190.275 251.926 188.028 249.772C185.812 247.587 182.904 246.494 179.303 246.494C176.256 246.494 173.594 247.325 171.316 248.987C169.07 250.618 167.315 253.004 166.053 256.143C164.792 259.282 164.161 263.083 164.161 267.545C164.161 272.07 164.776 275.917 166.007 279.087C167.269 282.257 169.039 284.673 171.316 286.335C173.594 287.996 176.256 288.827 179.303 288.827C181.549 288.827 183.565 288.366 185.35 287.442C187.166 286.519 188.659 285.18 189.828 283.426C191.029 281.641 191.813 279.502 192.183 277.009H210.741C210.433 282.426 208.956 287.196 206.309 291.32C203.693 295.414 200.077 298.614 195.46 300.923C190.844 303.231 185.381 304.385 179.072 304.385ZM243.553 304.339C239.028 304.339 234.997 303.554 231.457 301.984C227.918 300.384 225.117 298.03 223.055 294.921C221.024 291.782 220.009 287.873 220.009 283.195C220.009 279.256 220.732 275.947 222.178 273.27C223.625 270.592 225.594 268.438 228.087 266.807C230.58 265.176 233.412 263.945 236.582 263.114C239.782 262.283 243.137 261.698 246.646 261.359C250.77 260.929 254.094 260.528 256.617 260.159C259.141 259.759 260.972 259.174 262.111 258.405C263.25 257.635 263.819 256.497 263.819 254.989V254.712C263.819 251.788 262.896 249.526 261.049 247.925C259.233 246.325 256.648 245.525 253.293 245.525C249.754 245.525 246.938 246.31 244.845 247.879C242.752 249.418 241.367 251.357 240.69 253.696L222.501 252.219C223.425 247.91 225.241 244.186 227.949 241.047C230.657 237.877 234.15 235.446 238.428 233.753C242.737 232.029 247.723 231.168 253.386 231.168C257.325 231.168 261.095 231.629 264.696 232.553C268.328 233.476 271.544 234.907 274.344 236.846C277.176 238.785 279.407 241.278 281.038 244.325C282.67 247.341 283.485 250.957 283.485 255.173V303H264.835V293.167H264.281C263.142 295.383 261.618 297.337 259.71 299.03C257.802 300.692 255.509 302 252.832 302.954C250.154 303.877 247.061 304.339 243.553 304.339ZM249.185 290.766C252.078 290.766 254.632 290.197 256.848 289.058C259.064 287.889 260.803 286.319 262.065 284.349C263.326 282.38 263.957 280.148 263.957 277.656V270.131C263.342 270.531 262.496 270.9 261.418 271.239C260.372 271.546 259.187 271.839 257.864 272.116C256.54 272.362 255.217 272.593 253.893 272.808C252.57 272.993 251.37 273.162 250.293 273.316C247.984 273.655 245.969 274.193 244.245 274.932C242.522 275.67 241.183 276.671 240.229 277.933C239.275 279.164 238.798 280.702 238.798 282.549C238.798 285.227 239.767 287.273 241.706 288.689C243.676 290.074 246.169 290.766 249.185 290.766ZM318.409 262.006V303H298.743V232.091H317.485V244.602H318.316C319.886 240.478 322.517 237.215 326.211 234.815C329.904 232.383 334.382 231.168 339.645 231.168C344.569 231.168 348.862 232.245 352.525 234.399C356.187 236.554 359.034 239.631 361.065 243.632C363.096 247.602 364.112 252.342 364.112 257.851V303H344.446V261.359C344.476 257.02 343.368 253.634 341.122 251.203C338.875 248.741 335.782 247.51 331.843 247.51C329.196 247.51 326.857 248.079 324.826 249.218C322.825 250.357 321.256 252.019 320.117 254.204C319.009 256.358 318.44 258.959 318.409 262.006Z" fill="white"/>
<path d="M399.97 208.455V303H379.981V208.455H399.97ZM453.764 232.091V246.864H411.061V232.091H453.764ZM420.756 215.102H440.422V281.21C440.422 283.026 440.699 284.442 441.253 285.457C441.807 286.442 442.577 287.135 443.561 287.535C444.577 287.935 445.747 288.135 447.07 288.135C447.993 288.135 448.917 288.058 449.84 287.904C450.763 287.719 451.471 287.581 451.963 287.489L455.056 302.123C454.072 302.431 452.687 302.785 450.902 303.185C449.117 303.616 446.947 303.877 444.392 303.969C439.653 304.154 435.498 303.523 431.928 302.077C428.389 300.63 425.634 298.384 423.664 295.337C421.695 292.29 420.725 288.443 420.756 283.795V215.102Z" fill="black"/>
</svg>
